<svg width="185" height="112" viewBox="0 0 185 112" fill="none" xmlns="http://www.w3.org/2000/svg">
<path fill-rule="evenodd" clip-rule="evenodd" d="M170.002 34.8149C172.123 34.8149 174.065 35.1732 175.828 35.8901C177.621 36.5773 179.144 37.6086 180.399 38.9829C181.684 40.3274 182.685 42.0157 183.402 44.0474C184.119 46.049 184.477 48.3496 184.477 50.9487C184.477 53.5479 184.119 55.8635 183.402 57.895C182.685 59.8967 181.684 61.5852 180.399 62.9595C179.115 64.3337 177.576 65.3792 175.783 66.0962C173.991 66.8131 172.034 67.1713 169.913 67.1714C167.792 67.1714 165.834 66.8282 164.042 66.1411C162.279 65.4241 160.755 64.3928 159.471 63.0483C158.186 61.6741 157.185 59.9864 156.468 57.9849C155.781 55.9534 155.437 53.6377 155.437 51.0386C155.437 48.4393 155.796 46.138 156.513 44.1362C157.23 42.1047 158.231 40.4021 159.516 39.0278C160.8 37.6535 162.339 36.6072 164.132 35.8901C165.924 35.1732 167.881 34.815 170.002 34.8149ZM169.913 42.3892C168.15 42.3892 166.791 43.1057 165.835 44.5396C164.909 45.9736 164.445 48.1104 164.445 50.9487C164.445 53.7868 164.923 55.9379 165.879 57.4019C166.865 58.8657 168.239 59.598 170.002 59.5981C171.765 59.5981 173.11 58.8809 174.036 57.4468C174.992 56.0128 175.47 53.8766 175.47 51.0386C175.47 48.2003 174.977 46.0484 173.991 44.5845C173.035 43.1206 171.676 42.3893 169.913 42.3892Z" fill="black"/>
<path d="M49.3876 46.7358H59.1571V35.3081H68.0311V66.6782H59.1571V54.3101H49.3876V66.6782H40.5145V35.3081H49.3876V46.7358Z" fill="black"/>
<path d="M125.729 59.105H139.622V66.6782H116.945V35.3081H125.729V59.105Z" fill="black"/>
<path d="M97.1669 111.101H88.2938V75.6075H97.1669V111.101Z" fill="black"/>
<path d="M97.1669 66.7334H88.2938V8.26927H97.1669V66.7334Z" fill="black"/>
</svg>
