<svg width="236" height="143" viewBox="0 0 236 143" fill="none" xmlns="http://www.w3.org/2000/svg">
<path d="M123.769 142.924H112.363V97.3006H123.769V142.924Z" fill="white"/>
<path d="M123.769 85.8938H112.363V10.7425H123.769V85.8938Z" fill="white"/>
<path fill-rule="evenodd" clip-rule="evenodd" d="M217.393 44.8651C220.119 44.8651 222.616 45.3256 224.882 46.2472C227.186 47.1305 229.145 48.4561 230.758 50.2227C232.409 51.9509 233.696 54.1212 234.618 56.7327C235.539 59.3056 236 62.2629 236 65.6039C236 68.9449 235.54 71.9214 234.618 74.5328C233.696 77.1058 232.409 79.2762 230.758 81.0428C229.107 82.8092 227.128 84.1531 224.824 85.0748C222.52 85.9963 220.005 86.4568 217.278 86.4568C214.552 86.4568 212.036 86.0158 209.732 85.1325C207.466 84.2108 205.507 82.8852 203.856 81.157C202.204 79.3905 200.917 77.2211 199.996 74.6483C199.112 72.0369 198.671 69.0603 198.671 65.7194C198.671 62.3782 199.132 59.42 200.053 56.8469C200.975 54.2356 202.262 52.047 203.913 50.2805C205.565 48.5139 207.543 47.1689 209.847 46.2472C212.151 45.3257 214.666 44.8652 217.393 44.8651ZM217.278 54.6012C215.013 54.6012 213.265 55.5223 212.036 57.3654C210.846 59.2088 210.25 61.9554 210.25 65.6039C210.25 69.2519 210.864 72.0171 212.093 73.8989C213.36 75.7805 215.127 76.7219 217.393 76.722C219.659 76.722 221.388 75.8 222.578 73.9566C223.807 72.1133 224.421 69.3674 224.421 65.7194C224.421 62.0709 223.788 59.3049 222.521 57.4231C221.292 55.5414 219.544 54.6013 217.278 54.6012Z" fill="white"/>
<path d="M62.3523 60.1885H74.9103V45.499H86.3171V85.8229H74.9103V69.9246H62.3523V85.8229H50.9467V45.499H62.3523V60.1885Z" fill="white"/>
<path d="M160.484 76.0881H178.342V85.8229H149.192V45.499H160.484V76.0881Z" fill="white"/>
<path d="M123.722 97.2969H112.317V85.9196H123.722V97.2969Z" fill="black"/>
<path d="M123.722 142.924H112.317V131.547H123.722V142.924Z" fill="black"/>
</svg>
