<svg width="237" height="143" viewBox="0 0 237 143" fill="none" xmlns="http://www.w3.org/2000/svg">
<path fill-rule="evenodd" clip-rule="evenodd" d="M218.264 44.8651C220.991 44.8651 223.488 45.3256 225.753 46.2472C228.058 47.1305 230.017 48.4561 231.63 50.2227C233.281 51.9509 234.568 54.1212 235.49 56.7327C236.411 59.3056 236.872 62.2629 236.872 65.6039C236.872 68.9449 236.411 71.9214 235.49 74.5328C234.568 77.1058 233.281 79.2762 231.63 81.0428C229.978 82.8092 228 84.1531 225.696 85.0748C223.392 85.9963 220.877 86.4568 218.15 86.4568C215.424 86.4568 212.908 86.0158 210.603 85.1325C208.337 84.2108 206.379 82.8852 204.727 81.157C203.076 79.3905 201.789 77.2211 200.867 74.6483C199.984 72.0369 199.543 69.0603 199.543 65.7194C199.543 62.3782 200.003 59.42 200.925 56.8469C201.847 54.2356 203.134 52.047 204.785 50.2805C206.436 48.5139 208.415 47.1689 210.719 46.2472C213.023 45.3257 215.538 44.8652 218.264 44.8651ZM218.15 54.6012C215.885 54.6012 214.137 55.5223 212.908 57.3654C211.717 59.2088 211.122 61.9554 211.122 65.6039C211.122 69.2519 211.736 72.0171 212.965 73.8989C214.232 75.7805 215.999 76.7219 218.264 76.722C220.53 76.722 222.259 75.8 223.45 73.9566C224.679 72.1133 225.293 69.3674 225.293 65.7194C225.293 62.0709 224.66 59.3049 223.392 57.4231C222.163 55.5414 220.416 54.6013 218.15 54.6012Z" fill="black"/>
<path d="M63.224 60.1885H75.782V45.499H87.1888V85.8229H75.782V69.9246H63.224V85.8229H51.8184V45.499H63.224V60.1885Z" fill="black"/>
<path d="M161.356 76.0881H179.213V85.8229H150.064V45.499H161.356V76.0881Z" fill="black"/>
<path d="M124.641 142.924H113.235V97.3006H124.641V142.924Z" fill="black"/>
<path d="M124.641 85.8938H113.235V10.7425H124.641V85.8938Z" fill="black"/>
<path d="M124.641 97.2969H113.235V85.9196H124.641V97.2969Z" fill="white"/>
<path d="M124.641 97.2969H113.235V85.9196H124.641V97.2969Z" fill="white"/>
<path d="M124.641 142.924H113.235V131.547H124.641V142.924Z" fill="white"/>
</svg>
