<svg width="203" height="123" viewBox="0 0 203 123" fill="none" xmlns="http://www.w3.org/2000/svg">
<path fill-rule="evenodd" clip-rule="evenodd" d="M186.113 39.021C188.444 39.021 190.578 39.4146 192.515 40.2024C194.484 40.9574 196.159 42.0905 197.537 43.6005C198.949 45.0777 200.049 46.9328 200.837 49.165C201.625 51.3643 202.018 53.8921 202.018 56.7478C202.018 59.6037 201.625 62.1478 200.837 64.38C200.049 66.5794 198.949 68.4345 197.537 69.9445C196.126 71.4544 194.435 72.6032 192.465 73.391C190.496 74.1787 188.346 74.5723 186.016 74.5723C183.685 74.5723 181.534 74.1953 179.565 73.4403C177.628 72.6525 175.954 71.5194 174.542 70.0422C173.131 68.5322 172.031 66.6779 171.243 64.4787C170.488 62.2466 170.111 59.7023 170.111 56.8466C170.111 53.9906 170.504 51.4621 171.292 49.2627C172.08 47.0306 173.18 45.1598 174.592 43.6499C176.003 42.1398 177.694 40.9902 179.664 40.2024C181.633 39.4147 183.783 39.021 186.113 39.021ZM186.016 47.3431C184.079 47.3431 182.585 48.1304 181.535 49.7058C180.517 51.2815 180.008 53.6293 180.008 56.7478C180.008 59.8661 180.533 62.2297 181.583 63.8381C182.666 65.4465 184.177 66.2512 186.113 66.2513C188.05 66.2513 189.528 65.4632 190.546 63.8875C191.596 62.3119 192.121 59.9648 192.121 56.8466C192.121 53.728 191.58 51.3637 190.497 49.7552C189.446 48.1468 187.952 47.3432 186.016 47.3431Z" fill="black"/>
<path d="M53.5896 52.119H64.3238V39.5629H74.0741V74.0305H64.3238V60.4411H53.5896V74.0305H43.8405V39.5629H53.5896V52.119Z" fill="black"/>
<path d="M137.469 65.7094H152.734V74.0305H127.818V39.5629H137.469V65.7094Z" fill="black"/>
<path d="M106.087 122.839H96.3375V83.8414H106.087V122.839Z" fill="black"/>
<path d="M106.087 74.0912H96.3375V9.85423H106.087V74.0912Z" fill="black"/>
<path d="M106.087 83.8386H96.3375V74.1135H106.087V83.8386Z" fill="white"/>
<path d="M106.087 83.8386H96.3375V74.1135H106.087V83.8386Z" fill="white"/>
<path d="M106.087 38.4094H96.3375V28.6843H106.087V38.4094Z" fill="white"/>
</svg>
