<svg width="202" height="123" viewBox="0 0 202 123" fill="none" xmlns="http://www.w3.org/2000/svg">
<path d="M106.075 122.839H96.3258V83.8414H106.075V122.839Z" fill="white"/>
<path d="M106.075 74.0912H96.3258V9.85423H106.075V74.0912Z" fill="white"/>
<path fill-rule="evenodd" clip-rule="evenodd" d="M186.102 39.021C188.432 39.021 190.566 39.4146 192.503 40.2024C194.473 40.9574 196.147 42.0905 197.526 43.6005C198.937 45.0777 200.037 46.9328 200.825 49.165C201.613 51.3643 202.007 53.8921 202.007 56.7478C202.007 59.6037 201.613 62.1478 200.825 64.38C200.037 66.5794 198.937 68.4345 197.526 69.9445C196.114 71.4544 194.423 72.6032 192.454 73.391C190.484 74.1787 188.334 74.5723 186.004 74.5723C183.673 74.5723 181.523 74.1953 179.553 73.4403C177.616 72.6525 175.942 71.5194 174.531 70.0422C173.119 68.5322 172.019 66.6779 171.231 64.4787C170.476 62.2466 170.099 59.7023 170.099 56.8466C170.099 53.9906 170.493 51.4621 171.28 49.2627C172.068 47.0306 173.168 45.1598 174.58 43.6499C175.991 42.1398 177.682 40.9902 179.652 40.2024C181.621 39.4147 183.771 39.021 186.102 39.021ZM186.004 47.3431C184.067 47.3431 182.574 48.1304 181.523 49.7058C180.506 51.2815 179.996 53.6293 179.996 56.7478C179.996 59.8661 180.521 62.2297 181.571 63.8381C182.655 65.4465 184.165 66.2512 186.102 66.2513C188.038 66.2513 189.517 65.4632 190.534 63.8875C191.585 62.3119 192.109 59.9648 192.109 56.8466C192.109 53.728 191.568 51.3637 190.485 49.7552C189.434 48.1468 187.941 47.3432 186.004 47.3431Z" fill="white"/>
<path d="M53.5779 52.119H64.3121V39.5629H74.0623V74.0305H64.3121V60.4411H53.5779V74.0305H43.8287V39.5629H53.5779V52.119Z" fill="white"/>
<path d="M137.458 65.7094H152.722V74.0305H127.806V39.5629H137.458V65.7094Z" fill="white"/>
<path d="M106.035 83.8386H96.286V74.1135H106.035V83.8386Z" fill="black"/>
<path d="M106.035 38.4094H96.286V28.6843H106.035V38.4094Z" fill="black"/>
</svg>
