<svg width="34" height="34" viewBox="0 0 34 34" fill="none" xmlns="http://www.w3.org/2000/svg">
<path d="M16.9998 9.91675C13.0898 9.91675 9.9165 13.0901 9.9165 17.0001C9.9165 20.9101 13.0898 24.0834 16.9998 24.0834C20.9098 24.0834 24.0832 20.9101 24.0832 17.0001C24.0832 13.0901 20.9098 9.91675 16.9998 9.91675ZM2.83317 18.4167H5.6665C6.44567 18.4167 7.08317 17.7792 7.08317 17.0001C7.08317 16.2209 6.44567 15.5834 5.6665 15.5834H2.83317C2.054 15.5834 1.4165 16.2209 1.4165 17.0001C1.4165 17.7792 2.054 18.4167 2.83317 18.4167ZM28.3332 18.4167H31.1665C31.9457 18.4167 32.5832 17.7792 32.5832 17.0001C32.5832 16.2209 31.9457 15.5834 31.1665 15.5834H28.3332C27.554 15.5834 26.9165 16.2209 26.9165 17.0001C26.9165 17.7792 27.554 18.4167 28.3332 18.4167ZM15.5832 2.83341V5.66675C15.5832 6.44592 16.2207 7.08342 16.9998 7.08342C17.779 7.08342 18.4165 6.44592 18.4165 5.66675V2.83341C18.4165 2.05425 17.779 1.41675 16.9998 1.41675C16.2207 1.41675 15.5832 2.05425 15.5832 2.83341ZM15.5832 28.3334V31.1667C15.5832 31.9459 16.2207 32.5834 16.9998 32.5834C17.779 32.5834 18.4165 31.9459 18.4165 31.1667V28.3334C18.4165 27.5542 17.779 26.9167 16.9998 26.9167C16.2207 26.9167 15.5832 27.5542 15.5832 28.3334ZM8.48567 6.48841C8.35461 6.35708 8.19893 6.25289 8.02756 6.1818C7.85618 6.11071 7.67246 6.07412 7.48692 6.07412C7.30138 6.07412 7.11767 6.11071 6.94629 6.1818C6.77491 6.25289 6.61923 6.35708 6.48817 6.48841C6.35684 6.61948 6.25265 6.77515 6.18156 6.94653C6.11047 7.11791 6.07388 7.30163 6.07388 7.48716C6.07388 7.6727 6.11047 7.85642 6.18156 8.0278C6.25265 8.19918 6.35684 8.35485 6.48817 8.48591L7.98984 9.98758C8.54234 10.5401 9.449 10.5401 9.98734 9.98758C10.5257 9.43508 10.5398 8.52841 9.98734 7.99008L8.48567 6.48841ZM26.0098 24.0126C25.8788 23.8813 25.7231 23.7771 25.5517 23.706C25.3803 23.6349 25.1966 23.5983 25.0111 23.5983C24.8256 23.5983 24.6418 23.6349 24.4705 23.706C24.2991 23.7771 24.1434 23.8813 24.0123 24.0126C23.881 24.1436 23.7768 24.2993 23.7057 24.4707C23.6346 24.6421 23.598 24.8258 23.598 25.0113C23.598 25.1969 23.6346 25.3806 23.7057 25.552C23.7768 25.7233 23.881 25.879 24.0123 26.0101L25.514 27.5117C26.0665 28.0642 26.9732 28.0642 27.5115 27.5117C27.6428 27.3807 27.747 27.225 27.8181 27.0536C27.8892 26.8823 27.9258 26.6985 27.9258 26.513C27.9258 26.3275 27.8892 26.1437 27.8181 25.9724C27.747 25.801 27.6428 25.6453 27.5115 25.5142L26.0098 24.0126ZM27.5115 8.48591C27.6428 8.35485 27.747 8.19918 27.8181 8.0278C27.8892 7.85642 27.9258 7.6727 27.9258 7.48716C27.9258 7.30163 27.8892 7.11791 27.8181 6.94653C27.747 6.77515 27.6428 6.61948 27.5115 6.48841C27.3804 6.35708 27.2248 6.25289 27.0534 6.1818C26.882 6.11071 26.6983 6.07412 26.5128 6.07412C26.3272 6.07412 26.1435 6.11071 25.9721 6.1818C25.8007 6.25289 25.6451 6.35708 25.514 6.48841L24.0123 7.99008C23.4598 8.54258 23.4598 9.44925 24.0123 9.98758C24.5648 10.5259 25.4715 10.5401 26.0098 9.98758L27.5115 8.48591ZM9.98734 26.0101C10.1187 25.879 10.2229 25.7233 10.294 25.552C10.365 25.3806 10.4016 25.1969 10.4016 25.0113C10.4016 24.8258 10.365 24.6421 10.294 24.4707C10.2229 24.2993 10.1187 24.1436 9.98734 24.0126C9.85628 23.8813 9.7006 23.7771 9.52922 23.706C9.35784 23.6349 9.17413 23.5983 8.98859 23.5983C8.80305 23.5983 8.61933 23.6349 8.44795 23.706C8.27657 23.7771 8.1209 23.8813 7.98984 24.0126L6.48817 25.5142C5.93567 26.0667 5.93567 26.9734 6.48817 27.5117C7.04067 28.0501 7.94734 28.0642 8.48567 27.5117L9.98734 26.0101Z" fill="black"/>
</svg>
